<svg id="Layer_1" data-name="Layer 1" xmlns="http://www.w3.org/2000/svg" viewBox="0 0 129.26 34.06"><path d="M12.14,30.87a3.68,3.68,0,0,1-.73-.45,30.47,30.47,0,0,1-8-11.79A13.36,13.36,0,0,1,3,9.81a9.77,9.77,0,0,1,18.94,1.9,16,16,0,0,1-1.35,8.11A32.24,32.24,0,0,1,13.26,30.1a7.36,7.36,0,0,1-.74.62A2.5,2.5,0,0,1,12.14,30.87ZM8.91,20.43h6.56l.09-1-2.73-.17V16a1.16,1.16,0,0,1,.32-.08c2.52-.19,3.42-1.42,2.8-3.86-.25-1-.48-2-.74-3C15.1,8.67,15,8.3,14.82,8H9.34c-.41,1.83-.92,3.63-1.16,5.46a2.38,2.38,0,0,0,2.23,2.47c.38,0,.75,0,1.12.08v3.33l-2.93.23Z"/><path d="M88.77,22.48V11.89s.09-.11.13-.11a53,53,0,0,1,6.18.17,4.57,4.57,0,0,1,4.08,3.48,5,5,0,0,1-1.29,5.33,5.45,5.45,0,0,1-2.69,1.39C93.09,22.43,91,22.39,88.77,22.48Zm2.44-2.2c1,0,2,.07,3,0a3,3,0,0,0,2.74-3A3,3,0,0,0,94.69,14a31,31,0,0,0-3.48-.29Z"/><path d="M113.62,17.86v-6h2.31V22.33h-2l-5.1-6.18-.19.08v6.1H106.3V11.8h2c1.65,2,3.36,4.08,5.06,6.16Z"/><path d="M33.93,17.89V11.8h2.32V22.35H34.31l-5.15-6.23L29,16.2v6.12H26.68V11.79h2l5,6.15Z"/><path d="M58.77,19l2.28,3.32h-2.6l-2-2.87H54.18v2.86H51.77V11.83a45.33,45.33,0,0,1,5.71.05A3.64,3.64,0,0,1,61,15.66a3.34,3.34,0,0,1-.21,1.08C60.49,17.55,60.18,17.92,58.77,19Zm-4.61-1.59H55.9a6.63,6.63,0,0,0,1-.05,1.71,1.71,0,0,0,1.51-1.62,1.57,1.57,0,0,0-1.23-1.82,29.85,29.85,0,0,0-3-.27Z"/><path d="M38.22,17.07a5.47,5.47,0,0,1,5.4-5.53h.32a5.51,5.51,0,0,1,.67,11h-.67a5.44,5.44,0,0,1-5.71-5.15C38.22,17.29,38.22,17.18,38.22,17.07Zm2.5,0a3.24,3.24,0,0,0,3.13,3.35h.22A3.33,3.33,0,0,0,47.35,17v0a3.27,3.27,0,0,0-3.21-3.33h-.28A3.2,3.2,0,0,0,40.77,17v.11Z"/><path d="M74.55,15.91h4.82V11.8h2.4V22.35H79.44V18.07H74.6v4.27H72.22V11.79h2.33Z"/><path d="M121.06,13.64V16h4.78V18h-4.77V20.4h5.64v2h-8.12V11.82h8v1.82Z"/><path d="M65,13.71H61.56V11.82h9.21v1.87H67.4v8.64H65Z"/><path d="M103.7,22.35h-2.39V11.81h2.39Z"/></svg>