<svg id="Layer_1" data-name="Layer 1" xmlns="http://www.w3.org/2000/svg" viewBox="0 0 30.6 30.6"><defs><style>.cls-1{fill:#fff;}</style></defs><path class="cls-1" d="M15.9,31.5a4.2,4.2,0,0,1-.81-.5,34.12,34.12,0,0,1-9-13.2,15,15,0,0,1-.46-9.88,10.94,10.94,0,0,1,21.21,2.13,18,18,0,0,1-1.52,9.08,36.21,36.21,0,0,1-8.2,11.51,7.79,7.79,0,0,1-.83.69A2.26,2.26,0,0,1,15.9,31.5ZM12.29,19.81h7.34l.1-1.12-3.05-.19V14.85a1.06,1.06,0,0,1,.35-.09c2.83-.21,3.83-1.59,3.14-4.32-.28-1.12-.54-2.24-.83-3.36a4.52,4.52,0,0,0-.44-1.19H12.77c-.46,2.05-1,4.07-1.3,6.12A2.66,2.66,0,0,0,14,14.77a5.8,5.8,0,0,1,1.25.09v3.73l-3.28.26Z"/></svg>